<svg width="47" height="43" viewBox="0 0 47 43" fill="none" xmlns="http://www.w3.org/2000/svg">
<path d="M19.616 12.5881C19.7568 12.5356 19.9083 12.5083 20.0614 12.5078C20.2145 12.5074 20.3662 12.5337 20.5074 12.5853C20.6487 12.6368 20.7767 12.7126 20.8838 12.8081C20.9909 12.9036 21.0751 13.0168 21.1312 13.1412C21.1873 13.2656 21.2143 13.3985 21.2106 13.5321C21.2069 13.6657 21.1725 13.7974 21.1096 13.9192C21.0466 14.041 20.9563 14.1506 20.8439 14.2415C20.7316 14.3323 20.5996 14.4025 20.4556 14.4481C19.6899 14.7114 19.0328 15.1699 18.5696 15.7638C18.1065 16.3577 17.8588 17.0596 17.8589 17.7781V19.5181C17.8589 19.7833 17.9796 20.0376 18.1944 20.2252C18.4092 20.4127 18.7005 20.5181 19.0043 20.5181H28.1679C28.4717 20.5181 28.763 20.4127 28.9778 20.2252C29.1927 20.0376 29.3133 19.7833 29.3133 19.5181V17.8711C29.3135 17.1295 29.0555 16.4055 28.5735 15.7949C28.0916 15.1843 27.4084 14.716 26.6147 14.4521C26.4698 14.4082 26.3365 14.3394 26.2227 14.2497C26.1089 14.16 26.0169 14.0513 25.9521 13.9299C25.8873 13.8086 25.851 13.6772 25.8455 13.5434C25.84 13.4096 25.8653 13.2763 25.9199 13.1512C25.9745 13.0261 26.0573 12.9119 26.1634 12.8152C26.2695 12.7186 26.3968 12.6416 26.5376 12.5887C26.6785 12.5358 26.8301 12.5081 26.9834 12.5074C27.1367 12.5066 27.2887 12.5326 27.4302 12.5841C28.6577 12.9922 29.7141 13.7164 30.4595 14.6606C31.2049 15.6047 31.6041 16.7244 31.6042 17.8711V19.5181C31.6042 20.3137 31.2422 21.0768 30.5978 21.6394C29.9533 22.202 29.0793 22.5181 28.1679 22.5181H19.0043C18.093 22.5181 17.2189 22.202 16.5745 21.6394C15.93 21.0768 15.568 20.3137 15.568 19.5181V17.7781C15.5682 16.6582 15.9543 15.5643 16.6763 14.6387C17.3982 13.7131 18.4226 12.9985 19.616 12.5881ZM23.5861 2.51807C24.8013 2.51807 25.9667 2.93949 26.8259 3.68964C27.6852 4.43978 28.1679 5.4572 28.1679 6.51807V8.51807C28.1679 9.57893 27.6852 10.5963 26.8259 11.3465C25.9667 12.0966 24.8013 12.5181 23.5861 12.5181C22.3709 12.5181 21.2056 12.0966 20.3463 11.3465C19.4871 10.5963 19.0043 9.57893 19.0043 8.51807V6.51807C19.0043 5.4572 19.4871 4.43978 20.3463 3.68964C21.2056 2.93949 22.3709 2.51807 23.5861 2.51807ZM23.5861 4.51807C22.9785 4.51807 22.3958 4.72878 21.9662 5.10385C21.5366 5.47893 21.2952 5.98763 21.2952 6.51807V8.51807C21.2952 9.0485 21.5366 9.55721 21.9662 9.93228C22.3958 10.3074 22.9785 10.5181 23.5861 10.5181C24.1937 10.5181 24.7764 10.3074 25.206 9.93228C25.6356 9.55721 25.877 9.0485 25.877 8.51807V6.51807C25.877 5.98763 25.6356 5.47893 25.206 5.10385C24.7764 4.72878 24.1937 4.51807 23.5861 4.51807Z" fill="#181725"/>
<path d="M8.42329 38.6865H6.93529L6.34729 36.9945H2.77129L2.18329 38.6865H0.683291L3.73129 30.2865H5.38729L8.42329 38.6865ZM4.55929 31.9065L3.22729 35.6985H5.89129L4.55929 31.9065ZM11.9222 38.8425C11.0182 38.8425 10.2622 38.5385 9.65423 37.9305C9.05423 37.3145 8.75423 36.5665 8.75423 35.6865C8.75423 34.7905 9.05423 34.0425 9.65423 33.4425C10.2622 32.8345 11.0182 32.5305 11.9222 32.5305C12.5062 32.5305 13.0382 32.6705 13.5182 32.9505C13.9982 33.2305 14.3582 33.6065 14.5982 34.0785L13.4822 34.7265C13.3462 34.4385 13.1382 34.2145 12.8582 34.0545C12.5862 33.8865 12.2702 33.8025 11.9102 33.8025C11.3822 33.8025 10.9382 33.9825 10.5782 34.3425C10.2262 34.7105 10.0502 35.1585 10.0502 35.6865C10.0502 36.2145 10.2262 36.6625 10.5782 37.0305C10.9382 37.3905 11.3822 37.5705 11.9102 37.5705C12.2622 37.5705 12.5782 37.4905 12.8582 37.3305C13.1462 37.1625 13.3622 36.9345 13.5062 36.6465L14.6222 37.2825C14.3662 37.7625 13.9942 38.1425 13.5062 38.4225C13.0262 38.7025 12.4982 38.8425 11.9222 38.8425ZM18.2972 38.8425C17.3932 38.8425 16.6372 38.5385 16.0292 37.9305C15.4292 37.3145 15.1292 36.5665 15.1292 35.6865C15.1292 34.7905 15.4292 34.0425 16.0292 33.4425C16.6372 32.8345 17.3932 32.5305 18.2972 32.5305C18.8812 32.5305 19.4132 32.6705 19.8932 32.9505C20.3732 33.2305 20.7332 33.6065 20.9732 34.0785L19.8572 34.7265C19.7212 34.4385 19.5132 34.2145 19.2332 34.0545C18.9612 33.8865 18.6452 33.8025 18.2852 33.8025C17.7572 33.8025 17.3132 33.9825 16.9532 34.3425C16.6012 34.7105 16.4252 35.1585 16.4252 35.6865C16.4252 36.2145 16.6012 36.6625 16.9532 37.0305C17.3132 37.3905 17.7572 37.5705 18.2852 37.5705C18.6372 37.5705 18.9532 37.4905 19.2332 37.3305C19.5212 37.1625 19.7372 36.9345 19.8812 36.6465L20.9972 37.2825C20.7412 37.7625 20.3692 38.1425 19.8812 38.4225C19.4012 38.7025 18.8732 38.8425 18.2972 38.8425ZM26.9162 37.9305C26.3082 38.5385 25.5602 38.8425 24.6722 38.8425C23.7842 38.8425 23.0362 38.5385 22.4282 37.9305C21.8122 37.3145 21.5042 36.5665 21.5042 35.6865C21.5042 34.8065 21.8122 34.0585 22.4282 33.4425C23.0362 32.8345 23.7842 32.5305 24.6722 32.5305C25.5602 32.5305 26.3082 32.8345 26.9162 33.4425C27.5322 34.0585 27.8402 34.8065 27.8402 35.6865C27.8402 36.5665 27.5322 37.3145 26.9162 37.9305ZM22.8002 35.6865C22.8002 36.2305 22.9802 36.6825 23.3402 37.0425C23.7002 37.4025 24.1442 37.5825 24.6722 37.5825C25.2002 37.5825 25.6442 37.4025 26.0042 37.0425C26.3642 36.6825 26.5442 36.2305 26.5442 35.6865C26.5442 35.1425 26.3642 34.6905 26.0042 34.3305C25.6442 33.9705 25.2002 33.7905 24.6722 33.7905C24.1442 33.7905 23.7002 33.9705 23.3402 34.3305C22.9802 34.6905 22.8002 35.1425 22.8002 35.6865ZM33.0561 35.9025V32.6865H34.3521V38.6865H33.0561V37.9185C32.6561 38.5345 32.0361 38.8425 31.1961 38.8425C30.5001 38.8425 29.9401 38.6225 29.5161 38.1825C29.1001 37.7345 28.8921 37.1305 28.8921 36.3705V32.6865H30.1881V36.2385C30.1881 36.6865 30.3081 37.0305 30.5481 37.2705C30.7881 37.5105 31.1161 37.6305 31.5321 37.6305C32.0041 37.6305 32.3761 37.4865 32.6481 37.1985C32.9201 36.9025 33.0561 36.4705 33.0561 35.9025ZM39.0236 32.5305C39.7196 32.5305 40.2756 32.7545 40.6916 33.2025C41.1156 33.6425 41.3276 34.2425 41.3276 35.0025V38.6865H40.0316V35.1345C40.0316 34.6865 39.9116 34.3425 39.6716 34.1025C39.4316 33.8625 39.1036 33.7425 38.6876 33.7425C38.2156 33.7425 37.8436 33.8905 37.5716 34.1865C37.2996 34.4745 37.1636 34.9025 37.1636 35.4705V38.6865H35.8676V32.6865H37.1636V33.4545C37.5636 32.8385 38.1836 32.5305 39.0236 32.5305ZM46.071 32.6865V33.9345H44.583V36.8145C44.583 37.0625 44.639 37.2425 44.751 37.3545C44.863 37.4585 45.027 37.5185 45.243 37.5345C45.467 37.5425 45.743 37.5385 46.071 37.5225V38.6865C45.079 38.8065 44.367 38.7225 43.935 38.4345C43.503 38.1385 43.287 37.5985 43.287 36.8145V33.9345H42.183V32.6865H43.287V31.3905L44.583 31.0065V32.6865H46.071Z" fill="#181725"/>
</svg>
