<svg width="27" height="41" viewBox="0 0 27 41" fill="none" xmlns="http://www.w3.org/2000/svg">
<path d="M5.6516 36.8425C4.3876 36.8425 3.3396 36.4265 2.5076 35.5945C1.6756 34.7465 1.2596 33.7105 1.2596 32.4865C1.2596 31.2545 1.6756 30.2225 2.5076 29.3905C3.3316 28.5505 4.3796 28.1305 5.6516 28.1305C6.4116 28.1305 7.1116 28.3105 7.7516 28.6705C8.3996 29.0305 8.9036 29.5185 9.2636 30.1345L8.0636 30.8305C7.8396 30.4145 7.5116 30.0865 7.0796 29.8465C6.6556 29.5985 6.1796 29.4745 5.6516 29.4745C4.7636 29.4745 4.0356 29.7585 3.4676 30.3265C2.9156 30.8865 2.6396 31.6065 2.6396 32.4865C2.6396 33.3665 2.9156 34.0865 3.4676 34.6465C4.0356 35.2145 4.7636 35.4985 5.6516 35.4985C6.1796 35.4985 6.6596 35.3785 7.0916 35.1385C7.5236 34.8905 7.8476 34.5585 8.0636 34.1425L9.2636 34.8265C8.9196 35.4345 8.4196 35.9265 7.7636 36.3025C7.1316 36.6625 6.4276 36.8425 5.6516 36.8425ZM15.0663 31.5385V30.6865H16.3623V36.6865H15.0663V35.8225C14.5783 36.5025 13.8783 36.8425 12.9663 36.8425C12.1423 36.8425 11.4383 36.5385 10.8543 35.9305C10.2703 35.3225 9.97835 34.5745 9.97835 33.6865C9.97835 32.7985 10.2703 32.0505 10.8543 31.4425C11.4383 30.8345 12.1423 30.5305 12.9663 30.5305C13.8783 30.5305 14.5783 30.8665 15.0663 31.5385ZM11.8143 35.0665C12.1743 35.4265 12.6263 35.6065 13.1703 35.6065C13.7143 35.6065 14.1663 35.4265 14.5264 35.0665C14.8863 34.6985 15.0663 34.2385 15.0663 33.6865C15.0663 33.1345 14.8863 32.6785 14.5264 32.3185C14.1663 31.9505 13.7143 31.7665 13.1703 31.7665C12.6263 31.7665 12.1743 31.9505 11.8143 32.3185C11.4543 32.6785 11.2743 33.1345 11.2743 33.6865C11.2743 34.2305 11.4543 34.6905 11.8143 35.0665ZM19.1689 30.6865V31.6945C19.4969 30.9505 20.1129 30.5785 21.0169 30.5785V31.9825C20.5289 31.9505 20.0969 32.0705 19.7209 32.3425C19.3529 32.6065 19.1689 33.0465 19.1689 33.6625V36.6865H17.8729V30.6865H19.1689ZM25.4748 30.6865V31.9345H23.9868V34.8145C23.9868 35.0625 24.0428 35.2425 24.1548 35.3545C24.2668 35.4585 24.4308 35.5185 24.6468 35.5345C24.8708 35.5425 25.1468 35.5385 25.4748 35.5225V36.6865C24.4828 36.8065 23.7708 36.7225 23.3388 36.4345C22.9068 36.1385 22.6908 35.5985 22.6908 34.8145V31.9345H21.5868V30.6865H22.6908V29.3905L23.9868 29.0065V30.6865H25.4748Z" fill="#181725"/>
<path d="M10.9322 20.5181C10.2837 20.5181 9.66169 20.2604 9.2031 19.8018C8.7445 19.3432 8.48687 18.7212 8.48687 18.0727C8.48687 17.4241 8.7445 16.8021 9.2031 16.3436C9.66169 15.885 10.2837 15.6273 10.9322 15.6273C11.5808 15.6273 12.2028 15.885 12.6614 16.3436C13.12 16.8021 13.3776 17.4241 13.3776 18.0727C13.3776 18.7212 13.12 19.3432 12.6614 19.8018C12.2028 20.2604 11.5808 20.5181 10.9322 20.5181ZM19.491 20.5181C18.8425 20.5181 18.2205 20.2604 17.7619 19.8018C17.3033 19.3432 17.0456 18.7212 17.0456 18.0727C17.0456 17.4241 17.3033 16.8021 17.7619 16.3436C18.2205 15.885 18.8425 15.6273 19.491 15.6273C20.1396 15.6273 20.7615 15.885 21.2201 16.3436C21.6787 16.8021 21.9364 17.4241 21.9364 18.0727C21.9364 18.7212 21.6787 19.3432 21.2201 19.8018C20.7615 20.2604 20.1396 20.5181 19.491 20.5181ZM3.54968 3.30636C3.24445 3.29651 2.95502 3.16834 2.74258 2.94895C2.53015 2.72955 2.41138 2.43614 2.41138 2.13075C2.41138 1.82536 2.53015 1.53195 2.74258 1.31255C2.95502 1.09316 3.24445 0.964984 3.54968 0.955139L4.95699 0.955139C6.05984 0.955139 7.01354 1.72054 7.25318 2.7965L8.7852 9.69487C9.02485 10.7708 9.97854 11.5362 11.0814 11.5362H20.2662L22.0293 4.48135H10.6033C10.301 4.46756 10.0156 4.33774 9.80649 4.11889C9.5974 3.90005 9.48073 3.60903 9.48073 3.30636C9.48073 3.00369 9.5974 2.71266 9.80649 2.49382C10.0156 2.27498 10.301 2.14516 10.6033 2.13136H22.0293C22.3867 2.13125 22.7395 2.21264 23.0607 2.36933C23.382 2.52603 23.6633 2.7539 23.8832 3.03564C24.1032 3.31737 24.2561 3.64554 24.3301 3.99521C24.4042 4.34488 24.3976 4.70684 24.3108 5.05357L22.5477 12.106C22.4206 12.6149 22.127 13.0666 21.7136 13.3894C21.3002 13.7122 20.7907 13.8875 20.2662 13.8874H11.0814C10.0113 13.8876 8.97316 13.5227 8.13842 12.8532C7.30368 12.1836 6.72228 11.2494 6.49023 10.2047L4.95699 3.30636H3.54968Z" fill="#181725"/>
</svg>
