<svg width="42" height="39" viewBox="0 0 42 39" fill="none" xmlns="http://www.w3.org/2000/svg">
<path d="M25.2713 14.2376C26.0592 14.2376 26.8394 14.0824 27.5674 13.7808C28.2953 13.4793 28.9567 13.0374 29.5139 12.4802C30.071 11.9231 30.513 11.2616 30.8145 10.5337C31.1161 9.80571 31.2713 9.0255 31.2713 8.23756C31.2713 7.44963 31.1161 6.66942 30.8145 5.94146C30.513 5.21351 30.071 4.55207 29.5139 3.99492C28.9567 3.43777 28.2953 2.99581 27.5674 2.69429C26.8394 2.39276 26.0592 2.23756 25.2713 2.23756C23.68 2.23756 22.1538 2.8697 21.0286 3.99492C19.9034 5.12014 19.2713 6.64627 19.2713 8.23756C19.2713 9.82886 19.9034 11.355 21.0286 12.4802C22.1538 13.6054 23.68 14.2376 25.2713 14.2376ZM31.5913 13.1436L35.1713 16.7236C35.2667 16.8159 35.3428 16.9263 35.3951 17.0483C35.4474 17.1704 35.4749 17.3016 35.476 17.4344C35.4771 17.5672 35.4517 17.6988 35.4013 17.8217C35.3509 17.9445 35.2766 18.0561 35.1826 18.15C35.0887 18.2438 34.977 18.318 34.854 18.3682C34.7311 18.4183 34.5994 18.4436 34.4666 18.4423C34.3339 18.4411 34.2027 18.4134 34.0807 18.3609C33.9587 18.3084 33.8484 18.2321 33.7563 18.1366L30.1763 14.5566C28.5687 15.8044 26.546 16.3927 24.52 16.2018C22.494 16.0108 20.6169 15.0549 19.2708 13.5286C17.9248 12.0024 17.2109 10.0205 17.2747 7.98649C17.3384 5.95247 18.1749 4.01919 19.6139 2.58021C21.0529 1.14123 22.9862 0.304731 25.0202 0.24099C27.0542 0.177248 29.0361 0.89106 30.5623 2.23711C32.0886 3.58317 33.0445 5.46028 33.2355 7.48632C33.4264 9.51236 32.8381 11.535 31.5903 13.1426L31.5913 13.1436Z" fill="#181725"/>
<rect x="7.12671" y="0.237061" width="8.85499" height="2.39923" rx="1.19961" fill="#181725"/>
<rect x="7.12671" y="7.67523" width="6.46414" height="2.39923" rx="1.19961" fill="#181725"/>
<rect x="7.12671" y="15.1138" width="8.85499" height="2.39923" rx="1.19961" fill="#181725"/>
<path d="M3.05447 31.0985V33.3665H6.77447V34.6865H1.67447V26.2865H6.71447V27.6065H3.05447V29.7905H6.41447V31.0985H3.05447ZM11.0738 31.6145L13.3178 34.6865H11.8178L10.3298 32.6345L8.82975 34.6865H7.31775L9.57375 31.6025L7.43775 28.6865H8.93775L10.3178 30.5825L11.6978 28.6865H13.2098L11.0738 31.6145ZM17.5841 28.5305C18.4001 28.5305 19.1041 28.8385 19.6961 29.4545C20.2801 30.0625 20.5721 30.8065 20.5721 31.6865C20.5721 32.5745 20.2801 33.3225 19.6961 33.9305C19.1121 34.5385 18.4081 34.8425 17.5841 34.8425C16.6801 34.8425 15.9801 34.5065 15.4841 33.8345V37.0865H14.1881V28.6865H15.4841V29.5505C15.9721 28.8705 16.6721 28.5305 17.5841 28.5305ZM16.0241 33.0665C16.3841 33.4265 16.8361 33.6065 17.3801 33.6065C17.9241 33.6065 18.3761 33.4265 18.7361 33.0665C19.0961 32.6985 19.2761 32.2385 19.2761 31.6865C19.2761 31.1345 19.0961 30.6785 18.7361 30.3185C18.3761 29.9505 17.9241 29.7665 17.3801 29.7665C16.8361 29.7665 16.3841 29.9505 16.0241 30.3185C15.6641 30.6785 15.4841 31.1345 15.4841 31.6865C15.4841 32.2305 15.6641 32.6905 16.0241 33.0665ZM23.0427 34.6865H21.7467V25.9265H23.0427V34.6865ZM29.6235 33.9305C29.0155 34.5385 28.2675 34.8425 27.3795 34.8425C26.4915 34.8425 25.7435 34.5385 25.1355 33.9305C24.5195 33.3145 24.2115 32.5665 24.2115 31.6865C24.2115 30.8065 24.5195 30.0585 25.1355 29.4425C25.7435 28.8345 26.4915 28.5305 27.3795 28.5305C28.2675 28.5305 29.0155 28.8345 29.6235 29.4425C30.2395 30.0585 30.5475 30.8065 30.5475 31.6865C30.5475 32.5665 30.2395 33.3145 29.6235 33.9305ZM25.5075 31.6865C25.5075 32.2305 25.6875 32.6825 26.0475 33.0425C26.4075 33.4025 26.8515 33.5825 27.3795 33.5825C27.9075 33.5825 28.3515 33.4025 28.7115 33.0425C29.0715 32.6825 29.2515 32.2305 29.2515 31.6865C29.2515 31.1425 29.0715 30.6905 28.7115 30.3305C28.3515 29.9705 27.9075 29.7905 27.3795 29.7905C26.8515 29.7905 26.4075 29.9705 26.0475 30.3305C25.6875 30.6905 25.5075 31.1425 25.5075 31.6865ZM33.0154 28.6865V29.6945C33.3434 28.9505 33.9594 28.5785 34.8634 28.5785V29.9825C34.3754 29.9505 33.9434 30.0705 33.5674 30.3425C33.1994 30.6065 33.0154 31.0465 33.0154 31.6625V34.6865H31.7194V28.6865H33.0154ZM41.3357 32.2385H36.5597C36.6557 32.6865 36.8717 33.0345 37.2077 33.2825C37.5517 33.5305 37.9757 33.6545 38.4797 33.6545C39.1597 33.6545 39.6757 33.4065 40.0277 32.9105L41.0957 33.5345C40.5117 34.4065 39.6357 34.8425 38.4677 34.8425C37.4997 34.8425 36.7117 34.5465 36.1037 33.9545C35.5037 33.3545 35.2037 32.5985 35.2037 31.6865C35.2037 30.7985 35.4997 30.0505 36.0917 29.4425C36.6757 28.8345 37.4357 28.5305 38.3717 28.5305C39.2437 28.5305 39.9637 28.8385 40.5317 29.4545C41.0997 30.0705 41.3837 30.8185 41.3837 31.6985C41.3837 31.8585 41.3677 32.0385 41.3357 32.2385ZM36.5477 31.1825H40.0757C39.9877 30.7105 39.7877 30.3465 39.4757 30.0905C39.1717 29.8345 38.7997 29.7065 38.3597 29.7065C37.8797 29.7065 37.4797 29.8385 37.1597 30.1025C36.8397 30.3665 36.6357 30.7265 36.5477 31.1825Z" fill="#181725"/>
</svg>
