<svg width="53" height="42" viewBox="0 0 53 42" fill="none" xmlns="http://www.w3.org/2000/svg">
<g clip-path="url(#clip0_1_272)">
<path d="M18.6854 11.0097L26.5095 18.8338L34.3336 11.0097C35.0254 10.3179 35.414 9.37973 35.414 8.40145C35.414 7.42317 35.0254 6.48496 34.3336 5.79321C33.9911 5.4507 33.5845 5.179 33.137 4.99363C32.6894 4.80826 32.2098 4.71285 31.7254 4.71285C30.7471 4.71285 29.8089 5.10147 29.1172 5.79321L26.5095 8.40084L23.9019 5.79444C23.2084 5.11198 22.2733 4.7312 21.3003 4.73504C20.3273 4.73889 19.3953 5.12705 18.7072 5.81498C18.0191 6.50291 17.6307 7.43487 17.6267 8.40786C17.6226 9.38084 18.0031 10.316 18.6854 11.0097ZM25.6403 4.05357L26.5095 4.92278L27.3787 4.05357C27.9487 3.47865 28.6265 3.02196 29.3734 2.70971C30.1203 2.39747 30.9215 2.23582 31.731 2.23405C32.5405 2.23227 33.3424 2.39041 34.0906 2.69938C34.8389 3.00836 35.5187 3.46207 36.0911 4.03449C36.6636 4.60691 37.1173 5.28675 37.4262 6.03499C37.7352 6.78323 37.8934 7.58513 37.8916 8.39465C37.8898 9.20417 37.7282 10.0054 37.4159 10.7522C37.1037 11.4991 36.647 12.177 36.0721 12.7469L27.38 21.4402C27.2658 21.5545 27.1302 21.6452 26.981 21.707C26.8317 21.7689 26.6717 21.8008 26.5102 21.8008C26.3486 21.8008 26.1886 21.7689 26.0394 21.707C25.8901 21.6452 25.7545 21.5545 25.6403 21.4402L16.947 12.7481C16.3643 12.18 15.9001 11.5019 15.5815 10.7531C15.2629 10.0042 15.0962 9.19955 15.0909 8.38576C15.0857 7.57196 15.2422 6.76523 15.5512 6.01237C15.8602 5.2595 16.3156 4.57548 16.891 3.99999C17.4664 3.42449 18.1503 2.96899 18.9032 2.65988C19.656 2.35078 20.4627 2.19424 21.2765 2.19934C22.0903 2.20444 22.895 2.37108 23.6439 2.68959C24.3928 3.0081 25.0709 3.47214 25.6391 4.0548L25.6403 4.05357Z" fill="#181725"/>
</g>
<path d="M6.23559 29.2865V30.6065H2.69559V32.9585H6.11559V34.2785H2.69559V37.6865H1.31559V29.2865H6.23559ZM12.1945 32.5385V31.6865H13.4905V37.6865H12.1945V36.8225C11.7065 37.5025 11.0065 37.8425 10.0945 37.8425C9.27052 37.8425 8.56652 37.5385 7.98252 36.9305C7.39852 36.3225 7.10652 35.5745 7.10652 34.6865C7.10652 33.7985 7.39852 33.0505 7.98252 32.4425C8.56652 31.8345 9.27052 31.5305 10.0945 31.5305C11.0065 31.5305 11.7065 31.8665 12.1945 32.5385ZM8.94252 36.0665C9.30252 36.4265 9.75452 36.6065 10.2985 36.6065C10.8425 36.6065 11.2945 36.4265 11.6545 36.0665C12.0145 35.6985 12.1945 35.2385 12.1945 34.6865C12.1945 34.1345 12.0145 33.6785 11.6545 33.3185C11.2945 32.9505 10.8425 32.7665 10.2985 32.7665C9.75452 32.7665 9.30252 32.9505 8.94252 33.3185C8.58252 33.6785 8.40252 34.1345 8.40252 34.6865C8.40252 35.2305 8.58252 35.6905 8.94252 36.0665ZM17.4011 36.2465L19.0691 31.6865H20.4851L18.1451 37.6865H16.6451L14.3051 31.6865H15.7211L17.4011 36.2465ZM26.1474 36.9305C25.5394 37.5385 24.7914 37.8425 23.9034 37.8425C23.0154 37.8425 22.2674 37.5385 21.6594 36.9305C21.0434 36.3145 20.7354 35.5665 20.7354 34.6865C20.7354 33.8065 21.0434 33.0585 21.6594 32.4425C22.2674 31.8345 23.0154 31.5305 23.9034 31.5305C24.7914 31.5305 25.5394 31.8345 26.1474 32.4425C26.7634 33.0585 27.0714 33.8065 27.0714 34.6865C27.0714 35.5665 26.7634 36.3145 26.1474 36.9305ZM22.0314 34.6865C22.0314 35.2305 22.2114 35.6825 22.5714 36.0425C22.9314 36.4025 23.3754 36.5825 23.9034 36.5825C24.4314 36.5825 24.8754 36.4025 25.2354 36.0425C25.5954 35.6825 25.7754 35.2305 25.7754 34.6865C25.7754 34.1425 25.5954 33.6905 25.2354 33.3305C24.8754 32.9705 24.4314 32.7905 23.9034 32.7905C23.3754 32.7905 22.9314 32.9705 22.5714 33.3305C22.2114 33.6905 22.0314 34.1425 22.0314 34.6865ZM32.2873 34.9025V31.6865H33.5833V37.6865H32.2873V36.9185C31.8873 37.5345 31.2673 37.8425 30.4273 37.8425C29.7313 37.8425 29.1713 37.6225 28.7473 37.1825C28.3313 36.7345 28.1233 36.1305 28.1233 35.3705V31.6865H29.4193V35.2385C29.4193 35.6865 29.5393 36.0305 29.7793 36.2705C30.0193 36.5105 30.3473 36.6305 30.7633 36.6305C31.2353 36.6305 31.6073 36.4865 31.8793 36.1985C32.1513 35.9025 32.2873 35.4705 32.2873 34.9025ZM36.3948 31.6865V32.6945C36.7228 31.9505 37.3388 31.5785 38.2428 31.5785V32.9825C37.7548 32.9505 37.3228 33.0705 36.9468 33.3425C36.5788 33.6065 36.3948 34.0465 36.3948 34.6625V37.6865H35.0988V31.6865H36.3948ZM40.4243 30.5465C40.2643 30.7065 40.0723 30.7865 39.8483 30.7865C39.6243 30.7865 39.4283 30.7065 39.2603 30.5465C39.1003 30.3785 39.0203 30.1825 39.0203 29.9585C39.0203 29.7345 39.1003 29.5425 39.2603 29.3825C39.4203 29.2145 39.6163 29.1305 39.8483 29.1305C40.0803 29.1305 40.2763 29.2145 40.4363 29.3825C40.5963 29.5425 40.6763 29.7345 40.6763 29.9585C40.6763 30.1825 40.5923 30.3785 40.4243 30.5465ZM40.4963 37.6865H39.2003V31.6865H40.4963V37.6865ZM45.3491 31.6865V32.9345H43.8611V35.8145C43.8611 36.0625 43.9171 36.2425 44.0291 36.3545C44.1411 36.4585 44.3051 36.5185 44.5211 36.5345C44.7451 36.5425 45.0211 36.5385 45.3491 36.5225V37.6865C44.3571 37.8065 43.6451 37.7225 43.2131 37.4345C42.7811 37.1385 42.5651 36.5985 42.5651 35.8145V32.9345H41.4611V31.6865H42.5651V30.3905L43.8611 30.0065V31.6865H45.3491ZM52.0745 35.2385H47.2985C47.3945 35.6865 47.6105 36.0345 47.9465 36.2825C48.2905 36.5305 48.7145 36.6545 49.2185 36.6545C49.8985 36.6545 50.4145 36.4065 50.7665 35.9105L51.8345 36.5345C51.2505 37.4065 50.3745 37.8425 49.2065 37.8425C48.2385 37.8425 47.4505 37.5465 46.8425 36.9545C46.2425 36.3545 45.9425 35.5985 45.9425 34.6865C45.9425 33.7985 46.2385 33.0505 46.8305 32.4425C47.4145 31.8345 48.1745 31.5305 49.1105 31.5305C49.9825 31.5305 50.7025 31.8385 51.2705 32.4545C51.8385 33.0705 52.1225 33.8185 52.1225 34.6985C52.1225 34.8585 52.1065 35.0385 52.0745 35.2385ZM47.2865 34.1825H50.8145C50.7265 33.7105 50.5265 33.3465 50.2145 33.0905C49.9105 32.8345 49.5385 32.7065 49.0985 32.7065C48.6185 32.7065 48.2185 32.8385 47.8985 33.1025C47.5785 33.3665 47.3745 33.7265 47.2865 34.1825Z" fill="#181725"/>
<defs>
<clipPath id="clip0_1_272">
<rect width="24" height="24" fill="white" transform="translate(13.9912)"/>
</clipPath>
</defs>
</svg>
