<svg width="19" height="19" viewBox="0 0 19 19" fill="none" xmlns="http://www.w3.org/2000/svg">
<path d="M8.7068 14.5715C9.49473 14.5715 10.2749 14.4164 11.0029 14.1148C11.7309 13.8133 12.3923 13.3713 12.9494 12.8142C13.5066 12.257 13.9486 11.5956 14.2501 10.8676C14.5516 10.1397 14.7068 9.35948 14.7068 8.57155C14.7068 7.78362 14.5516 7.0034 14.2501 6.27545C13.9486 5.54749 13.5066 4.88606 12.9494 4.32891C12.3923 3.77176 11.7309 3.3298 11.0029 3.02827C10.2749 2.72674 9.49473 2.57155 8.7068 2.57155C7.1155 2.57155 5.58938 3.20369 4.46416 4.32891C3.33894 5.45413 2.7068 6.98025 2.7068 8.57155C2.7068 10.1628 3.33894 11.689 4.46416 12.8142C5.58938 13.9394 7.1155 14.5715 8.7068 14.5715ZM15.0268 13.4775L18.6068 17.0575C18.7022 17.1499 18.7783 17.2603 18.8307 17.3823C18.883 17.5043 18.9105 17.6356 18.9115 17.7684C18.9126 17.9011 18.8872 18.0328 18.8368 18.1557C18.7865 18.2785 18.7121 18.3901 18.6182 18.4839C18.5242 18.5778 18.4125 18.6519 18.2896 18.7021C18.1667 18.7523 18.035 18.7775 17.9022 18.7763C17.7694 18.775 17.6382 18.7474 17.5162 18.6949C17.3943 18.6424 17.284 18.5661 17.1918 18.4705L13.6118 14.8905C12.0043 16.1384 9.9816 16.7267 7.95556 16.5357C5.92952 16.3448 4.05241 15.3889 2.70635 13.8626C1.3603 12.3364 0.646487 10.3545 0.710228 8.32047C0.773969 6.28645 1.61047 4.35317 3.04945 2.91419C4.48843 1.47522 6.4217 0.638715 8.45573 0.574974C10.4897 0.511233 12.4716 1.22504 13.9979 2.5711C15.5241 3.91715 16.48 5.79426 16.671 7.8203C16.862 9.84634 16.2737 11.869 15.0258 13.4765L15.0268 13.4775Z" fill="#181B19"/>
</svg>
