<svg width="30" height="43" viewBox="0 0 30 43" fill="none" xmlns="http://www.w3.org/2000/svg">
<path d="M7.7063 2.56787H21.7063C22.4887 2.56787 23.239 2.8789 23.7922 3.43213C24.3455 3.98536 24.6565 4.73568 24.6565 5.51807V7.51807C24.6565 8.38529 24.2826 9.16569 23.6858 9.70557L23.6692 9.72119V20.4829C23.6692 21.0001 23.4636 21.4961 23.0979 21.8618C22.7322 22.2275 22.2361 22.4331 21.719 22.4331H14.0793V22.4321L14.0696 22.4341C13.9498 22.4567 13.8282 22.4682 13.7063 22.4683H11.7063C11.5844 22.4682 11.4628 22.4567 11.343 22.4341L11.3333 22.4829L11.343 22.4331H7.71704C7.19996 22.433 6.70377 22.2275 6.33813 21.8618C5.97257 21.4961 5.76685 21 5.76685 20.4829V9.64209L5.71411 9.69385C5.41807 9.42322 5.17953 9.09512 5.01489 8.729C4.84376 8.34832 4.75552 7.93545 4.7561 7.51807V5.51807C4.7561 4.73568 5.06713 3.98536 5.62036 3.43213C6.17359 2.8789 6.92391 2.56787 7.7063 2.56787ZM17.6731 9.71729C17.1328 10.2019 16.432 10.4693 15.7063 10.4683H13.7063C12.9511 10.4683 12.2606 10.1843 11.7395 9.71729L11.7063 9.68701L11.6731 9.71729C11.1328 10.2019 10.432 10.4693 9.7063 10.4683H7.66626V20.5327H9.7561V15.5181C9.7561 15.0009 9.9617 14.5049 10.3274 14.1392C10.6931 13.7735 11.1891 13.5679 11.7063 13.5679H13.7063C14.2235 13.5679 14.7195 13.7735 15.0852 14.1392C15.4509 14.5049 15.6565 15.0009 15.6565 15.5181V20.5327H21.7698V10.4683H19.7063C18.9511 10.4683 18.2606 10.1843 17.7395 9.71729L17.7063 9.68701L17.6731 9.71729ZM11.6565 20.5327H13.7063V20.4839H13.7561V15.4683H11.6565V20.5327ZM18.7063 13.5679H19.7063C19.9583 13.5679 20.2 13.668 20.3782 13.8462C20.5563 14.0244 20.6565 14.2661 20.6565 14.5181V17.5181C20.6565 17.77 20.5563 18.0118 20.3782 18.1899C20.2 18.3681 19.9583 18.4683 19.7063 18.4683H18.7063C18.4543 18.4683 18.2126 18.3681 18.0344 18.1899C17.8563 18.0118 17.7561 17.77 17.7561 17.5181V14.5181C17.7561 14.2661 17.8563 14.0244 18.0344 13.8462C18.2126 13.668 18.4543 13.5679 18.7063 13.5679ZM7.7063 4.46826C7.42782 4.46826 7.16102 4.57897 6.96411 4.77588C6.7672 4.97279 6.65649 5.23959 6.65649 5.51807V7.51807C6.65649 7.79654 6.7672 8.06334 6.96411 8.26025C7.16102 8.45717 7.42782 8.56787 7.7063 8.56787H9.7063C9.98478 8.56787 10.2516 8.45717 10.4485 8.26025C10.6454 8.06334 10.7561 7.79654 10.7561 7.51807V4.46826H7.7063ZM12.6565 7.51807C12.6565 7.79654 12.7672 8.06334 12.9641 8.26025C13.161 8.45717 13.4278 8.56787 13.7063 8.56787H15.7063C15.9848 8.56787 16.2516 8.45717 16.4485 8.26025C16.6454 8.06334 16.7561 7.79654 16.7561 7.51807V4.46826H12.6565V7.51807ZM18.6565 7.51807C18.6565 7.79654 18.7672 8.06334 18.9641 8.26025C19.161 8.45717 19.4278 8.56787 19.7063 8.56787H21.7063C21.9848 8.56787 22.2516 8.45717 22.4485 8.26025C22.6454 8.06334 22.7561 7.79654 22.7561 7.51807V5.51807C22.7561 5.23959 22.6454 4.97279 22.4485 4.77588C22.2516 4.57897 21.9848 4.46826 21.7063 4.46826H18.6565V7.51807Z" fill="#181725" stroke="white" stroke-width="0.1"/>
<path d="M4.063 38.8425C3.255 38.8425 2.567 38.6625 1.999 38.3025C1.439 37.9345 1.047 37.4265 0.823002 36.7785L2.011 36.0825C2.347 37.0265 3.043 37.4985 4.099 37.4985C4.611 37.4985 4.999 37.3985 5.263 37.1985C5.527 36.9985 5.659 36.7305 5.659 36.3945C5.659 36.0585 5.519 35.7985 5.239 35.6145C4.959 35.4305 4.463 35.2305 3.751 35.0145C3.023 34.7985 2.435 34.5425 1.987 34.2465C1.443 33.8625 1.171 33.2985 1.171 32.5545C1.171 31.8105 1.435 31.2225 1.963 30.7905C2.483 30.3505 3.119 30.1305 3.871 30.1305C4.535 30.1305 5.119 30.2945 5.623 30.6225C6.135 30.9425 6.527 31.3945 6.799 31.9785L5.635 32.6505C5.283 31.8665 4.695 31.4745 3.871 31.4745C3.471 31.4745 3.151 31.5705 2.911 31.7625C2.671 31.9465 2.551 32.1985 2.551 32.5185C2.551 32.8305 2.671 33.0785 2.911 33.2625C3.151 33.4385 3.595 33.6265 4.243 33.8265C4.643 33.9625 4.875 34.0425 4.939 34.0665C5.043 34.0985 5.251 34.1785 5.563 34.3065C5.819 34.4105 6.023 34.5225 6.175 34.6425C6.799 35.1305 7.087 35.7065 7.039 36.3705C7.039 37.1305 6.763 37.7345 6.211 38.1825C5.675 38.6225 4.959 38.8425 4.063 38.8425ZM11.3117 32.5305C12.0077 32.5305 12.5637 32.7545 12.9797 33.2025C13.4037 33.6425 13.6157 34.2425 13.6157 35.0025V38.6865H12.3197V35.1345C12.3197 34.6865 12.1997 34.3425 11.9597 34.1025C11.7197 33.8625 11.3917 33.7425 10.9757 33.7425C10.5037 33.7425 10.1317 33.8905 9.85966 34.1865C9.58766 34.4745 9.45166 34.9025 9.45166 35.4705V38.6865H8.15566V30.2865H9.45166V33.4545C9.85166 32.8385 10.4717 32.5305 11.3117 32.5305ZM20.0871 37.9305C19.4791 38.5385 18.7311 38.8425 17.8431 38.8425C16.9551 38.8425 16.2071 38.5385 15.5991 37.9305C14.9831 37.3145 14.6751 36.5665 14.6751 35.6865C14.6751 34.8065 14.9831 34.0585 15.5991 33.4425C16.2071 32.8345 16.9551 32.5305 17.8431 32.5305C18.7311 32.5305 19.4791 32.8345 20.0871 33.4425C20.7031 34.0585 21.0111 34.8065 21.0111 35.6865C21.0111 36.5665 20.7031 37.3145 20.0871 37.9305ZM15.9711 35.6865C15.9711 36.2305 16.1511 36.6825 16.5111 37.0425C16.8711 37.4025 17.3151 37.5825 17.8431 37.5825C18.3711 37.5825 18.8151 37.4025 19.1751 37.0425C19.5351 36.6825 19.7151 36.2305 19.7151 35.6865C19.7151 35.1425 19.5351 34.6905 19.1751 34.3305C18.8151 33.9705 18.3711 33.7905 17.8431 33.7905C17.3151 33.7905 16.8711 33.9705 16.5111 34.3305C16.1511 34.6905 15.9711 35.1425 15.9711 35.6865ZM25.579 32.5305C26.395 32.5305 27.099 32.8385 27.691 33.4545C28.275 34.0625 28.567 34.8065 28.567 35.6865C28.567 36.5745 28.275 37.3225 27.691 37.9305C27.107 38.5385 26.403 38.8425 25.579 38.8425C24.675 38.8425 23.975 38.5065 23.479 37.8345V41.0865H22.183V32.6865H23.479V33.5505C23.967 32.8705 24.667 32.5305 25.579 32.5305ZM24.019 37.0665C24.379 37.4265 24.831 37.6065 25.375 37.6065C25.919 37.6065 26.371 37.4265 26.731 37.0665C27.091 36.6985 27.271 36.2385 27.271 35.6865C27.271 35.1345 27.091 34.6785 26.731 34.3185C26.371 33.9505 25.919 33.7665 25.375 33.7665C24.831 33.7665 24.379 33.9505 24.019 34.3185C23.659 34.6785 23.479 35.1345 23.479 35.6865C23.479 36.2305 23.659 36.6905 24.019 37.0665Z" fill="#181725"/>
</svg>
